<svg width="1200" height="680" viewBox="0 0 1200 680" fill="none" xmlns="http://www.w3.org/2000/svg" role="img" aria-labelledby="title desc">
  <title id="title">Notelab screenshot placeholder</title>
  <desc id="desc">A placeholder frame for a future Notelab product screenshot.</desc>
  <rect width="1200" height="680" rx="28" fill="#F8FAFC"/>
  <rect x="48" y="48" width="1104" height="584" rx="20" fill="#FFFFFF" stroke="#CBD5E1" stroke-width="2"/>
  <rect x="48" y="48" width="1104" height="56" rx="20" fill="#111827"/>
  <circle cx="84" cy="76" r="8" fill="#F87171"/>
  <circle cx="112" cy="76" r="8" fill="#FBBF24"/>
  <circle cx="140" cy="76" r="8" fill="#34D399"/>
  <rect x="88" y="144" width="220" height="432" rx="14" fill="#F1F5F9" stroke="#E2E8F0"/>
  <rect x="340" y="144" width="520" height="432" rx="14" fill="#FFFFFF" stroke="#E2E8F0"/>
  <rect x="892" y="144" width="220" height="432" rx="14" fill="#F8FAFC" stroke="#E2E8F0"/>
  <rect x="120" y="184" width="148" height="16" rx="8" fill="#94A3B8"/>
  <rect x="120" y="224" width="108" height="12" rx="6" fill="#CBD5E1"/>
  <rect x="120" y="256" width="132" height="12" rx="6" fill="#CBD5E1"/>
  <rect x="120" y="288" width="92" height="12" rx="6" fill="#CBD5E1"/>
  <rect x="380" y="184" width="284" height="28" rx="14" fill="#111827"/>
  <rect x="380" y="240" width="400" height="14" rx="7" fill="#CBD5E1"/>
  <rect x="380" y="272" width="340" height="14" rx="7" fill="#CBD5E1"/>
  <rect x="380" y="328" width="420" height="72" rx="12" fill="#EEF2FF" stroke="#C7D2FE"/>
  <rect x="380" y="424" width="180" height="96" rx="12" fill="#ECFDF5" stroke="#BBF7D0"/>
  <rect x="584" y="424" width="216" height="96" rx="12" fill="#FFF7ED" stroke="#FED7AA"/>
  <rect x="924" y="184" width="116" height="16" rx="8" fill="#64748B"/>
  <rect x="924" y="232" width="152" height="52" rx="12" fill="#E0F2FE" stroke="#BAE6FD"/>
  <rect x="924" y="304" width="152" height="52" rx="12" fill="#F1F5F9" stroke="#E2E8F0"/>
  <rect x="924" y="376" width="152" height="52" rx="12" fill="#F1F5F9" stroke="#E2E8F0"/>
  <text x="600" y="610" text-anchor="middle" fill="#64748B" font-family="Inter, Arial, sans-serif" font-size="24" font-weight="600">Replace with Notelab product screenshot</text>
</svg>
